<?xml version="1.0" encoding="utf-8"?>
<!-- Generator: Adobe Illustrator 15.0.0, SVG Export Plug-In  -->
<!DOCTYPE svg PUBLIC "-//W3C//DTD SVG 1.1//EN" "http://www.w3.org/Graphics/SVG/1.1/DTD/svg11.dtd" [
	<!ENTITY ns_flows "http://ns.adobe.com/Flows/1.0/">
]>
<svg version="1.1"
	 xmlns="http://www.w3.org/2000/svg" xmlns:xlink="http://www.w3.org/1999/xlink" xmlns:a="http://ns.adobe.com/AdobeSVGViewerExtensions/3.0/"
	 x="0px" y="0px" width="171px" height="139px" viewBox="-0.1 -0.793 171 139" enable-background="new -0.1 -0.793 171 139"
	 xml:space="preserve">
<defs>
</defs>
<path fill="none" stroke="#2A5171" stroke-width="17" stroke-linecap="round" stroke-miterlimit="10" d="M142.73,108.672
	c0,1.212-1.021,2.191-2.275,2.191H30.096c-1.255,0-2.273-0.979-2.273-2.191v-97.98c0-1.211,1.019-2.191,2.273-2.191h110.359
	c1.255,0,2.275,0.98,2.275,2.191V108.672z"/>
<path fill="none" stroke="#2A5171" stroke-width="15" stroke-linecap="round" stroke-miterlimit="10" d="M160.778,112.863h-56.436
	v6.252c0,1.258-1.02,2.278-2.273,2.278H68.481c-1.253,0-2.273-1.02-2.273-2.278v-6.252H9.773c-1.255,0-2.273,1.019-2.273,2.277
	v12.505c0,1.258,1.019,2.278,2.273,2.278h151.005c1.254,0,2.273-1.02,2.273-2.278v-12.505
	C163.052,113.882,162.032,112.863,160.778,112.863z"/>
</svg>
