<?xml version="1.0" encoding="utf-8"?>
<!-- Generator: Adobe Illustrator 15.0.0, SVG Export Plug-In  -->
<!DOCTYPE svg PUBLIC "-//W3C//DTD SVG 1.1//EN" "http://www.w3.org/Graphics/SVG/1.1/DTD/svg11.dtd" [
	<!ENTITY ns_flows "http://ns.adobe.com/Flows/1.0/">
]>
<svg version="1.1"
	 xmlns="http://www.w3.org/2000/svg" xmlns:xlink="http://www.w3.org/1999/xlink" xmlns:a="http://ns.adobe.com/AdobeSVGViewerExtensions/3.0/"
	 x="0px" y="0px" width="139px" height="128px" viewBox="-0.912 -0.946 139 128" enable-background="new -0.912 -0.946 139 128"
	 xml:space="preserve">
<defs>
</defs>
<path fill="none" stroke="#122434" stroke-width="12" stroke-linecap="round" stroke-miterlimit="10" d="M129.266,55.247
	L76.859,10.823c0,0-3.829-4.823-7.821-4.823s-7.821,4.823-7.821,4.823L8.811,55.247c-6.324,6.324,0,7.65,0,7.65h11.316v55.634
	c0,1.252,1.014,2.266,2.261,2.266h33.339v-37c0-1.251,1.013-2.266,2.266-2.266h22.092c1.248,0,2.263,1.014,2.263,2.266v37h33.342
	c1.247,0,2.261-1.014,2.261-2.266V62.897h11.316C129.266,62.897,135.59,61.571,129.266,55.247z"/>
</svg>
